<?xml version="1.0" encoding="UTF-8"?>
<!DOCTYPE svg PUBLIC "-//W3C//DTD SVG 1.1//EN" "http://www.w3.org/Graphics/SVG/1.1/DTD/svg11.dtd">
<svg xmlns="http://www.w3.org/2000/svg" version="1.1" width="415px" height="183px" style="shape-rendering:geometricPrecision; text-rendering:geometricPrecision; image-rendering:optimizeQuality; fill-rule:evenodd; clip-rule:evenodd" xmlns:xlink="http://www.w3.org/1999/xlink">
<g><path style="opacity:1" fill="#faf9f7" d="M -0.5,-0.5 C 137.833,-0.5 276.167,-0.5 414.5,-0.5C 414.5,60.5 414.5,121.5 414.5,182.5C 276.167,182.5 137.833,182.5 -0.5,182.5C -0.5,121.5 -0.5,60.5 -0.5,-0.5 Z"/></g>
<g><path style="opacity:1" fill="#080705" d="M 10.5,26.5 C 143.833,26.5 277.167,26.5 410.5,26.5C 410.5,70.1667 410.5,113.833 410.5,157.5C 401.827,157.666 393.16,157.5 384.5,157C 392.827,156.5 401.16,156.334 409.5,156.5C 409.5,113.5 409.5,70.5 409.5,27.5C 276.833,27.5 144.167,27.5 11.5,27.5C 11.5,70.5 11.5,113.5 11.5,156.5C 19.84,156.334 28.1733,156.5 36.5,157C 27.8397,157.5 19.1731,157.666 10.5,157.5C 10.5,113.833 10.5,70.1667 10.5,26.5 Z"/></g>
<g><path style="opacity:1" fill="#0f0e0d" d="M 292.5,67.5 C 303.988,66.5051 315.655,66.1717 327.5,66.5C 327.827,71.2137 327.493,75.8804 326.5,80.5C 325.75,72.4163 321.417,68.083 313.5,67.5C 311.307,67.3262 309.473,67.9929 308,69.5C 307.5,76.1583 307.334,82.825 307.5,89.5C 313.24,89.0974 316.907,86.0974 318.5,80.5C 319.833,86.8333 319.833,93.1667 318.5,99.5C 317.504,93.1657 313.837,90.1657 307.5,90.5C 307.334,97.175 307.5,103.842 308,110.5C 312.079,111.629 316.245,111.796 320.5,111C 324.314,107.218 326.814,102.718 328,97.5C 328.499,102.823 328.666,108.156 328.5,113.5C 316.495,113.667 304.495,113.5 292.5,113C 294.492,112.426 295.992,111.259 297,109.5C 297.667,96.1667 297.667,82.8333 297,69.5C 295.67,68.4178 294.17,67.7512 292.5,67.5 Z"/></g>
<g><path style="opacity:1" fill="#0f0f0e" d="M 88.5,67.5 C 94.3188,66.3475 100.319,66.1808 106.5,67C 104.543,69.1212 104.043,71.6212 105,74.5C 108.197,83.0917 111.197,91.7584 114,100.5C 116.953,94.3069 119.12,87.8069 120.5,81C 119.822,77.8048 118.988,74.6381 118,71.5C 117.363,69.6969 116.197,68.3636 114.5,67.5C 120.807,66.3361 127.141,66.1694 133.5,67C 132.167,67.3333 130.833,67.6667 129.5,68C 128.941,68.7247 128.608,69.5581 128.5,70.5C 131.566,80.1978 134.733,89.8645 138,99.5C 141.444,91.064 144.278,82.3974 146.5,73.5C 146.089,69.9201 144.089,67.7535 140.5,67C 151.833,66.3333 163.167,66.3333 174.5,67C 172.671,67.2735 171.171,68.1068 170,69.5C 169.333,83.1667 169.333,96.8333 170,110.5C 171.419,111.46 172.919,112.293 174.5,113C 167.5,113.667 160.5,113.667 153.5,113C 154.891,111.98 156.391,111.147 158,110.5C 158.667,96.8333 158.667,83.1667 158,69.5C 153.869,66.4569 150.869,67.4569 149,72.5C 144.832,85.839 140.666,99.1724 136.5,112.5C 134.833,113.833 133.167,113.833 131.5,112.5C 128.235,103.204 125.068,93.8705 122,84.5C 118.321,94.0356 115.155,103.702 112.5,113.5C 110.533,113.739 108.699,113.406 107,112.5C 102.2,98.4351 97.2004,84.4351 92,70.5C 90.9609,69.2899 89.7942,68.2899 88.5,67.5 Z"/></g>
<g><path style="opacity:1" fill="#121210" d="M 222.5,67.5 C 226.311,66.3547 230.311,66.1881 234.5,67C 243.119,77.0742 251.619,87.2409 260,97.5C 260.667,88.8333 260.667,80.1667 260,71.5C 258.661,68.9057 256.494,67.4057 253.5,67C 257.833,66.3333 262.167,66.3333 266.5,67C 264.714,67.7845 263.214,68.9512 262,70.5C 261.5,84.8295 261.333,99.1628 261.5,113.5C 259.856,113.714 258.356,113.38 257,112.5C 248,100.833 239,89.1667 230,77.5C 229.333,88.1667 229.333,98.8333 230,109.5C 231.579,111.041 233.413,112.208 235.5,113C 231.129,113.828 226.795,113.661 222.5,112.5C 224.193,111.772 225.693,110.772 227,109.5C 227.667,95.8333 227.667,82.1667 227,68.5C 225.644,67.6198 224.144,67.2865 222.5,67.5 Z"/></g>
<g><path style="opacity:1" fill="#111110" d="M 176.5,67.5 C 180.311,66.3547 184.311,66.1881 188.5,67C 197.119,77.0742 205.619,87.2409 214,97.5C 214.667,88.8333 214.667,80.1667 214,71.5C 213.626,70.5838 213.126,69.7504 212.5,69C 210.616,68.7837 208.949,68.117 207.5,67C 211.833,66.3333 216.167,66.3333 220.5,67C 218.714,67.7845 217.214,68.9512 216,70.5C 215.5,84.8295 215.333,99.1628 215.5,113.5C 213.856,113.714 212.356,113.38 211,112.5C 202,100.833 193,89.1667 184,77.5C 183.333,88.1667 183.333,98.8333 184,109.5C 185.579,111.041 187.413,112.208 189.5,113C 185.167,113.667 180.833,113.667 176.5,113C 178.282,112.186 179.782,111.019 181,109.5C 181.833,95.8212 181.666,82.1545 180.5,68.5C 179.264,67.7542 177.93,67.4208 176.5,67.5 Z"/></g>
<g><path style="opacity:1" fill="#0a0907" d="M 269.5,67.5 C 275.987,66.346 282.654,66.1794 289.5,67C 287.919,67.7065 286.419,68.5399 285,69.5C 284.333,82.8333 284.333,96.1667 285,109.5C 286.008,111.259 287.508,112.426 289.5,113C 282.808,113.831 276.142,113.664 269.5,112.5C 271.296,111.859 272.796,110.859 274,109.5C 274.667,96.1667 274.667,82.8333 274,69.5C 272.67,68.4178 271.17,67.7512 269.5,67.5 Z"/></g>
<g><path style="opacity:1" fill="#1f1e1d" d="M 117.5,150.5 C 118.675,150.281 119.675,150.614 120.5,151.5C 121.833,154.833 123.167,158.167 124.5,161.5C 124.167,161.833 123.833,162.167 123.5,162.5C 122.588,160.257 120.922,159.257 118.5,159.5C 116.382,160.474 114.382,161.307 112.5,162C 114.308,158.219 115.974,154.385 117.5,150.5 Z"/></g>
<g><path style="opacity:1" fill="#1b1a19" d="M 138.5,150.5 C 141.157,150.162 143.49,150.829 145.5,152.5C 143.071,152.421 140.571,152.755 138,153.5C 136.213,159.882 138.38,161.882 144.5,159.5C 145.604,160.631 145.271,161.465 143.5,162C 137.171,162.668 134.671,159.834 136,153.5C 137.045,152.627 137.878,151.627 138.5,150.5 Z"/></g>
<g><path style="opacity:1" fill="#1a1918" d="M 157.5,150.5 C 159.256,151.552 159.923,153.219 159.5,155.5C 161.5,155.5 163.5,155.5 165.5,155.5C 165.215,153.712 165.548,152.045 166.5,150.5C 167.833,154.5 167.833,158.5 166.5,162.5C 165.548,160.955 165.215,159.288 165.5,157.5C 163.5,157.5 161.5,157.5 159.5,157.5C 159.785,159.288 159.452,160.955 158.5,162.5C 157.509,158.555 157.176,154.555 157.5,150.5 Z"/></g>
<g><path style="opacity:1" fill="#1b1b19" d="M 278.5,150.5 C 280.017,150.511 281.184,151.177 282,152.5C 283.333,154.5 284.667,156.5 286,158.5C 286.182,155.774 286.682,153.107 287.5,150.5C 289.996,164.022 287.829,165.355 281,154.5C 280.818,157.226 280.318,159.893 279.5,162.5C 278.509,158.555 278.176,154.555 278.5,150.5 Z"/></g>
<g><path style="opacity:1" fill="#cfcecc" d="M 118.5,153.5 C 119.931,154.78 120.598,156.447 120.5,158.5C 119.022,158.762 117.689,158.429 116.5,157.5C 117.18,156.14 117.847,154.807 118.5,153.5 Z"/></g>
<g><path style="opacity:1" fill="#121210" d="M 72.5,150.5 C 75.8984,150.18 79.2317,150.513 82.5,151.5C 81.3112,152.429 79.9778,152.762 78.5,152.5C 77.8333,165.833 77.1667,165.833 76.5,152.5C 74.5168,152.843 73.1834,152.176 72.5,150.5 Z"/></g>
<g><path style="opacity:1" fill="#21201f" d="M 201.5,150.5 C 207.986,148.835 210.819,151.168 210,157.5C 208.548,158.907 208.715,160.407 210.5,162C 208.543,160.714 206.21,159.881 203.5,159.5C 203.719,160.675 203.386,161.675 202.5,162.5C 201.509,158.555 201.176,154.555 201.5,150.5 Z"/></g>
<g><path style="opacity:1" fill="#7f7e7c" d="M 203.5,152.5 C 203.5,153.833 203.5,155.167 203.5,156.5C 204.833,156.5 206.167,156.5 207.5,156.5C 206.081,157.451 204.415,157.784 202.5,157.5C 202.216,155.585 202.549,153.919 203.5,152.5 Z"/></g>
<g><path style="opacity:1" fill="#f4f3f1" d="M 203.5,152.5 C 205.167,152.5 206.833,152.5 208.5,152.5C 208.768,154.099 208.434,155.432 207.5,156.5C 206.167,156.5 204.833,156.5 203.5,156.5C 203.5,155.167 203.5,153.833 203.5,152.5 Z"/></g>
<g><path style="opacity:1" fill="#232221" d="M 235.5,150.5 C 236.376,150.369 237.043,150.702 237.5,151.5C 238.634,154.07 239.468,156.736 240,159.5C 241.43,156.647 242.263,153.647 242.5,150.5C 243.675,150.281 244.675,150.614 245.5,151.5C 246.332,154.161 247.166,156.828 248,159.5C 248.834,156.828 249.668,154.161 250.5,151.5C 251.167,150.167 251.833,150.167 252.5,151.5C 251.235,154.796 250.068,158.129 249,161.5C 248.586,161.957 248.086,162.291 247.5,162.5C 246.238,159.885 245.072,157.218 244,154.5C 242.659,157.022 241.826,159.689 241.5,162.5C 240.5,162.5 239.5,162.5 238.5,162.5C 237.812,158.416 236.812,154.416 235.5,150.5 Z"/></g>
<g><path style="opacity:1" fill="#232321" d="M 263.5,150.5 C 264.794,152.048 265.461,154.048 265.5,156.5C 265.167,158.5 264.833,160.5 264.5,162.5C 263.509,158.555 263.176,154.555 263.5,150.5 Z"/></g>
<g><path style="opacity:1" fill="#1d1c1b" d="M 301.5,150.5 C 304.41,152.239 306.91,154.572 309,157.5C 309.186,155.1 309.686,152.766 310.5,150.5C 312.996,164.022 310.829,165.355 304,154.5C 303.818,157.226 303.318,159.893 302.5,162.5C 301.509,158.555 301.176,154.555 301.5,150.5 Z"/></g>
<g><path style="opacity:1" fill="#1a1918" d="M 180.5,150.5 C 183.247,150.187 185.914,150.52 188.5,151.5C 186.604,152.466 184.604,152.799 182.5,152.5C 182.5,153.5 182.5,154.5 182.5,155.5C 190.5,156.167 190.5,156.833 182.5,157.5C 182.5,158.5 182.5,159.5 182.5,160.5C 184.924,160.192 187.257,160.526 189.5,161.5C 186.572,162.484 183.572,162.817 180.5,162.5C 180.5,158.5 180.5,154.5 180.5,150.5 Z"/></g>
<g><path style="opacity:1" fill="#474745" d="M 324.5,150.5 C 325.794,152.048 326.461,154.048 326.5,156.5C 326.167,158.5 325.833,160.5 325.5,162.5C 324.509,158.555 324.176,154.555 324.5,150.5 Z"/></g>
<g><path style="opacity:1" fill="#191817" d="M 93.5,150.5 C 96.5719,150.183 99.5719,150.516 102.5,151.5C 100.257,152.474 97.924,152.808 95.5,152.5C 95.5,153.5 95.5,154.5 95.5,155.5C 103.5,156.167 103.5,156.833 95.5,157.5C 95.5,158.5 95.5,159.5 95.5,160.5C 97.924,160.192 100.257,160.526 102.5,161.5C 99.5719,162.484 96.5719,162.817 93.5,162.5C 93.5,158.5 93.5,154.5 93.5,150.5 Z"/></g>
<g><path style="opacity:1" fill="#21201f" d="M 338.5,150.5 C 341.572,150.183 344.572,150.516 347.5,151.5C 345.257,152.474 342.924,152.808 340.5,152.5C 340.5,153.5 340.5,154.5 340.5,155.5C 348.5,156.167 348.5,156.833 340.5,157.5C 340.5,158.5 340.5,159.5 340.5,160.5C 342.924,160.192 345.257,160.526 347.5,161.5C 344.572,162.484 341.572,162.817 338.5,162.5C 338.5,158.5 338.5,154.5 338.5,150.5 Z"/></g>
</svg>
