<?xml version="1.0" encoding="UTF-8"?>
<svg xmlns="http://www.w3.org/2000/svg" xmlns:xlink="http://www.w3.org/1999/xlink" width="299px" height="299px" viewBox="0 0 299 299" version="1.1">
<g id="surface1">
<path style=" stroke:none;fill-rule:evenodd;fill:rgb(98.039216%,97.647059%,96.862745%);fill-opacity:1;" d="M -0.300781 -0.300781 C 99.367188 -0.300781 199.035156 -0.300781 298.699219 -0.300781 C 298.699219 99.367188 298.699219 199.035156 298.699219 298.699219 C 199.035156 298.699219 99.367188 298.699219 -0.300781 298.699219 C -0.300781 199.035156 -0.300781 99.367188 -0.300781 -0.300781 Z M -0.300781 -0.300781 "/>
<path style=" stroke:none;fill-rule:evenodd;fill:rgb(3.137255%,2.745098%,1.960784%);fill-opacity:1;" d="M 29.601562 107.9375 C 109.335938 107.9375 189.066406 107.9375 268.800781 107.9375 C 268.800781 134.050781 268.800781 160.164062 268.800781 186.277344 C 263.613281 186.375 258.433594 186.277344 253.253906 185.976562 C 258.234375 185.679688 263.214844 185.578125 268.203125 185.679688 C 268.203125 159.964844 268.203125 134.25 268.203125 108.535156 C 188.867188 108.535156 109.535156 108.535156 30.199219 108.535156 C 30.199219 134.25 30.199219 159.964844 30.199219 185.679688 C 35.1875 185.578125 40.167969 185.679688 45.148438 185.976562 C 39.96875 186.277344 34.789062 186.375 29.601562 186.277344 C 29.601562 160.164062 29.601562 134.050781 29.601562 107.9375 Z M 29.601562 107.9375 "/>
<path style=" stroke:none;fill-rule:evenodd;fill:rgb(3.529412%,3.137255%,2.352941%);fill-opacity:1;" d="M 184.484375 132.457031 C 188.363281 131.765625 192.347656 131.667969 196.441406 132.15625 C 195.496094 132.582031 194.601562 133.078125 193.753906 133.652344 C 193.351562 141.625 193.351562 149.601562 193.753906 157.574219 C 194.355469 158.625 195.25 159.324219 196.441406 159.664062 C 192.457031 160.066406 188.46875 160.066406 184.484375 159.664062 C 185.675781 159.324219 186.570312 158.625 187.175781 157.574219 C 187.574219 149.601562 187.574219 141.625 187.175781 133.652344 C 186.378906 133.007812 185.480469 132.605469 184.484375 132.457031 Z M 184.484375 132.457031 "/>
<path style=" stroke:none;fill-rule:evenodd;fill:rgb(5.490196%,5.098039%,5.098039%);fill-opacity:1;" d="M 208.402344 158.769531 C 208.402344 159.167969 208.402344 159.566406 208.402344 159.964844 C 205.007812 160.0625 201.621094 159.964844 198.238281 159.664062 C 199.429688 159.324219 200.324219 158.625 200.929688 157.574219 C 201.328125 149.601562 201.328125 141.625 200.929688 133.652344 C 199.964844 133.265625 199.070312 132.769531 198.238281 132.15625 C 205.210938 131.859375 212.1875 131.757812 219.167969 131.859375 C 219.363281 134.679688 219.164062 137.46875 218.570312 140.230469 C 217.664062 133.734375 214.074219 131.34375 207.804688 133.054688 C 207.230469 137.207031 207.03125 141.390625 207.207031 145.613281 C 210.640625 145.371094 212.832031 143.578125 213.785156 140.230469 C 214.582031 144.019531 214.582031 147.804688 213.785156 151.59375 C 213.1875 147.804688 210.996094 146.011719 207.207031 146.210938 C 207.109375 150.203125 207.207031 154.191406 207.507812 158.171875 C 207.734375 158.503906 208.035156 158.703125 208.402344 158.769531 Z M 208.402344 158.769531 "/>
<path style=" stroke:none;fill-rule:evenodd;fill:rgb(5.490196%,5.490196%,5.098039%);fill-opacity:1;" d="M 76.246094 132.457031 C 79.726562 131.765625 83.3125 131.667969 87.007812 132.15625 C 85.839844 133.425781 85.539062 134.921875 86.113281 136.644531 C 88.023438 141.78125 89.816406 146.964844 91.492188 152.191406 C 93.261719 148.488281 94.554688 144.601562 95.382812 140.53125 C 94.976562 138.621094 94.476562 136.726562 93.886719 134.847656 C 93.503906 133.769531 92.808594 132.972656 91.792969 132.457031 C 95.363281 131.761719 98.953125 131.660156 102.558594 132.15625 C 101.128906 132.191406 100.332031 132.890625 100.164062 134.25 C 101.703125 140.199219 103.695312 145.980469 106.144531 151.59375 C 108.492188 145.992188 109.988281 140.210938 110.628906 134.25 C 109.839844 133.0625 108.746094 132.363281 107.339844 132.15625 C 114.117188 131.757812 120.894531 131.757812 127.671875 132.15625 C 126.578125 132.320312 125.683594 132.820312 124.980469 133.652344 C 124.582031 141.824219 124.582031 150 124.980469 158.171875 C 125.832031 158.746094 126.726562 159.242188 127.671875 159.664062 C 123.488281 160.066406 119.300781 160.066406 115.113281 159.664062 C 115.945312 159.054688 116.84375 158.558594 117.804688 158.171875 C 118.203125 150 118.203125 141.824219 117.804688 133.652344 C 115.335938 131.832031 113.542969 132.429688 112.425781 135.445312 C 109.835938 143.609375 107.34375 151.78125 104.949219 159.964844 C 103.878906 160.136719 102.882812 159.9375 101.960938 159.367188 C 100.007812 153.808594 98.113281 148.226562 96.277344 142.621094 C 94.289062 148.398438 92.394531 154.179688 90.597656 159.964844 C 89.527344 160.136719 88.53125 159.9375 87.605469 159.367188 C 84.457031 151.019531 81.367188 142.644531 78.339844 134.25 C 77.714844 133.527344 77.019531 132.929688 76.246094 132.457031 Z M 76.246094 132.457031 "/>
<path style=" stroke:none;fill-rule:evenodd;fill:rgb(7.058824%,6.666667%,6.666667%);fill-opacity:1;" d="M 128.867188 132.457031 C 131.148438 131.773438 133.539062 131.671875 136.046875 132.15625 C 141.199219 138.183594 146.28125 144.261719 151.292969 150.398438 C 151.691406 145.214844 151.691406 140.03125 151.292969 134.847656 C 150.429688 133.417969 149.132812 132.519531 147.40625 132.15625 C 150 131.757812 152.589844 131.757812 155.179688 132.15625 C 154.113281 132.628906 153.214844 133.324219 152.488281 134.25 C 152.191406 142.820312 152.089844 151.390625 152.191406 159.964844 C 151.207031 160.09375 150.3125 159.894531 149.5 159.367188 C 144.117188 152.390625 138.734375 145.414062 133.355469 138.4375 C 132.957031 144.816406 132.957031 151.195312 133.355469 157.574219 C 134.3125 158.390625 135.40625 158.988281 136.644531 159.367188 C 134.074219 160.0625 131.484375 160.160156 128.867188 159.664062 C 129.933594 159.179688 130.832031 158.480469 131.558594 157.574219 C 132.058594 149.394531 131.957031 141.21875 131.261719 133.054688 C 130.523438 132.609375 129.722656 132.410156 128.867188 132.457031 Z M 128.867188 132.457031 "/>
<path style=" stroke:none;fill-rule:evenodd;fill:rgb(6.666667%,6.666667%,6.27451%);fill-opacity:1;" d="M 156.378906 132.457031 C 158.65625 131.773438 161.046875 131.671875 163.554688 132.15625 C 168.707031 138.183594 173.789062 144.261719 178.800781 150.398438 C 179.199219 145.214844 179.199219 140.03125 178.800781 134.847656 C 178 133.296875 176.707031 132.402344 174.914062 132.15625 C 177.507812 131.757812 180.097656 131.757812 182.6875 132.15625 C 181.621094 132.628906 180.722656 133.324219 179.996094 134.25 C 179.699219 142.820312 179.597656 151.390625 179.699219 159.964844 C 178.714844 160.09375 177.820312 159.894531 177.007812 159.367188 C 171.625 152.390625 166.242188 145.414062 160.863281 138.4375 C 160.464844 144.617188 160.464844 150.796875 160.863281 156.976562 C 161.523438 158.359375 162.621094 159.257812 164.152344 159.664062 C 161.757812 160.066406 159.367188 160.066406 156.976562 159.664062 C 157.671875 158.96875 158.371094 158.269531 159.066406 157.574219 C 159.367188 149.402344 159.46875 141.230469 159.367188 133.054688 C 158.339844 132.976562 157.34375 132.777344 156.378906 132.457031 Z M 156.378906 132.457031 "/>
<path style=" stroke:none;fill-rule:evenodd;fill:rgb(7.843137%,7.45098%,6.666667%);fill-opacity:1;" d="M 213.1875 159.964844 C 213.1875 159.566406 213.1875 159.167969 213.1875 158.769531 C 214.839844 158.625 216.132812 157.824219 217.074219 156.378906 C 217.875 154.355469 218.671875 152.363281 219.464844 150.398438 C 219.765625 153.582031 219.863281 156.769531 219.765625 159.964844 C 217.570312 159.964844 215.378906 159.964844 213.1875 159.964844 Z M 213.1875 159.964844 "/>
<path style=" stroke:none;fill-rule:evenodd;fill:rgb(28.627451%,28.235294%,27.843137%);fill-opacity:1;" d="M 208.402344 158.769531 C 209.996094 158.769531 211.59375 158.769531 213.1875 158.769531 C 213.1875 159.167969 213.1875 159.566406 213.1875 159.964844 C 211.59375 159.964844 209.996094 159.964844 208.402344 159.964844 C 208.402344 159.566406 208.402344 159.167969 208.402344 158.769531 Z M 208.402344 158.769531 "/>
<path style=" stroke:none;fill-rule:evenodd;fill:rgb(12.54902%,12.156863%,11.764706%);fill-opacity:1;" d="M 143.820312 182.089844 C 147.699219 181.09375 149.390625 182.492188 148.902344 186.277344 C 148.035156 187.117188 148.132812 188.015625 149.199219 188.96875 C 148.03125 188.199219 146.636719 187.699219 145.015625 187.472656 C 145.144531 188.175781 144.945312 188.773438 144.417969 189.265625 C 143.824219 186.90625 143.625 184.515625 143.820312 182.089844 Z M 143.820312 182.089844 "/>
<path style=" stroke:none;fill-rule:evenodd;fill:rgb(10.196078%,9.803922%,9.411765%);fill-opacity:1;" d="M 117.507812 182.089844 C 118.558594 182.71875 118.957031 183.71875 118.703125 185.082031 C 119.898438 185.082031 121.09375 185.082031 122.289062 185.082031 C 122.121094 184.011719 122.320312 183.015625 122.890625 182.089844 C 123.6875 184.484375 123.6875 186.875 122.890625 189.265625 C 122.320312 188.34375 122.121094 187.347656 122.289062 186.277344 C 121.09375 186.277344 119.898438 186.277344 118.703125 186.277344 C 118.875 187.347656 118.675781 188.34375 118.105469 189.265625 C 117.511719 186.90625 117.3125 184.515625 117.507812 182.089844 Z M 117.507812 182.089844 "/>
<path style=" stroke:none;fill-rule:evenodd;fill:rgb(90.196078%,89.803922%,89.019608%);fill-opacity:1;" d="M 145.015625 183.285156 C 146.011719 183.285156 147.007812 183.285156 148.003906 183.285156 C 148.402344 185.679688 147.40625 186.675781 145.015625 186.277344 C 145.015625 185.28125 145.015625 184.285156 145.015625 183.285156 Z M 145.015625 183.285156 "/>
<path style=" stroke:none;fill-rule:evenodd;fill:rgb(28.235294%,27.843137%,27.45098%);fill-opacity:1;" d="M 217.371094 182.089844 C 218.148438 183.015625 218.546875 184.210938 218.570312 185.679688 C 218.371094 186.875 218.171875 188.070312 217.972656 189.265625 C 217.378906 186.90625 217.179688 184.515625 217.371094 182.089844 Z M 217.371094 182.089844 "/>
<path style=" stroke:none;fill-rule:evenodd;fill:rgb(9.803922%,9.411765%,9.019608%);fill-opacity:1;" d="M 79.234375 182.089844 C 81.070312 181.902344 82.867188 182.101562 84.617188 182.6875 C 83.277344 183.269531 81.878906 183.472656 80.429688 183.285156 C 80.429688 183.886719 80.429688 184.484375 80.429688 185.082031 C 85.214844 185.480469 85.214844 185.878906 80.429688 186.277344 C 80.429688 186.875 80.429688 187.472656 80.429688 188.070312 C 81.878906 187.886719 83.277344 188.085938 84.617188 188.667969 C 82.867188 189.257812 81.070312 189.457031 79.234375 189.265625 C 79.234375 186.875 79.234375 184.484375 79.234375 182.089844 Z M 79.234375 182.089844 "/>
<path style=" stroke:none;fill-rule:evenodd;fill:rgb(13.333333%,13.333333%,12.54902%);fill-opacity:1;" d="M 225.746094 182.089844 C 227.582031 181.902344 229.375 182.101562 231.128906 182.6875 C 229.785156 183.269531 228.390625 183.472656 226.941406 183.285156 C 226.941406 183.886719 226.941406 184.484375 226.941406 185.082031 C 231.726562 185.480469 231.726562 185.878906 226.941406 186.277344 C 226.941406 186.875 226.941406 187.472656 226.941406 188.070312 C 228.390625 187.886719 229.785156 188.085938 231.128906 188.667969 C 229.375 189.257812 227.582031 189.457031 225.746094 189.265625 C 225.746094 186.875 225.746094 184.484375 225.746094 182.089844 Z M 225.746094 182.089844 "/>
<path style=" stroke:none;fill-rule:evenodd;fill:rgb(23.529412%,23.137255%,22.745098%);fill-opacity:1;" d="M 180.894531 182.089844 C 181.667969 183.015625 182.066406 184.210938 182.089844 185.679688 C 181.890625 186.875 181.691406 188.070312 181.492188 189.265625 C 180.898438 186.90625 180.703125 184.515625 180.894531 182.089844 Z M 180.894531 182.089844 "/>
<path style=" stroke:none;fill-rule:evenodd;fill:rgb(14.117647%,13.72549%,13.333333%);fill-opacity:1;" d="M 164.152344 182.089844 C 164.675781 182.011719 165.074219 182.210938 165.347656 182.6875 C 166.023438 184.226562 166.523438 185.820312 166.84375 187.472656 C 167.695312 185.765625 168.195312 183.972656 168.335938 182.089844 C 169.039062 181.960938 169.636719 182.160156 170.132812 182.6875 C 170.628906 184.28125 171.128906 185.875 171.625 187.472656 C 172.125 185.875 172.625 184.28125 173.121094 182.6875 C 173.519531 181.890625 173.917969 181.890625 174.316406 182.6875 C 173.640625 184.226562 173.140625 185.820312 172.820312 187.472656 C 172.601562 188.316406 172.105469 188.914062 171.328125 189.265625 C 170.574219 187.703125 169.875 186.109375 169.234375 184.484375 C 168.644531 185.84375 168.144531 187.242188 167.738281 188.667969 C 167.246094 189.199219 166.648438 189.398438 165.945312 189.265625 C 165.535156 186.824219 164.9375 184.433594 164.152344 182.089844 Z M 164.152344 182.089844 "/>
<path style=" stroke:none;fill-rule:evenodd;fill:rgb(10.196078%,9.803922%,9.411765%);fill-opacity:1;" d="M 93.585938 182.089844 C 94.289062 181.960938 94.886719 182.160156 95.382812 182.6875 C 96.179688 184.683594 96.976562 186.675781 97.773438 188.667969 C 97.574219 188.867188 97.375 189.066406 97.175781 189.265625 C 96.644531 188.773438 96.445312 188.175781 96.578125 187.472656 C 94.296875 187.402344 92.304688 187.898438 90.597656 188.96875 C 91.679688 186.707031 92.675781 184.414062 93.585938 182.089844 Z M 93.585938 182.089844 "/>
<path style=" stroke:none;fill-rule:evenodd;fill:rgb(81.176471%,80.784314%,80%);fill-opacity:1;" d="M 94.183594 183.886719 C 95.039062 184.652344 95.441406 185.648438 95.382812 186.875 C 94.496094 187.03125 93.699219 186.832031 92.988281 186.277344 C 93.394531 185.464844 93.792969 184.667969 94.183594 183.886719 Z M 94.183594 183.886719 "/>
<path style=" stroke:none;fill-rule:evenodd;fill:rgb(10.588235%,10.196078%,9.803922%);fill-opacity:1;" d="M 189.863281 182.089844 C 190.773438 182.097656 191.46875 182.496094 191.957031 183.285156 C 192.753906 184.484375 193.554688 185.679688 194.351562 186.875 C 194.457031 185.246094 194.757812 183.648438 195.246094 182.089844 C 196.738281 190.175781 195.445312 190.972656 191.359375 184.484375 C 191.25 186.113281 190.953125 187.707031 190.464844 189.265625 C 189.871094 186.90625 189.671875 184.515625 189.863281 182.089844 Z M 189.863281 182.089844 "/>
<path style=" stroke:none;fill-rule:evenodd;fill:rgb(10.980392%,10.588235%,10.196078%);fill-opacity:1;" d="M 203.617188 182.089844 C 204.527344 182.097656 205.222656 182.496094 205.710938 183.285156 C 206.507812 184.484375 207.308594 185.679688 208.105469 186.875 C 208.210938 185.246094 208.511719 183.648438 209 182.089844 C 210.492188 190.175781 209.199219 190.972656 205.113281 184.484375 C 205.003906 186.113281 204.707031 187.707031 204.21875 189.265625 C 203.625 186.90625 203.425781 184.515625 203.617188 182.089844 Z M 203.617188 182.089844 "/>
<path style=" stroke:none;fill-rule:evenodd;fill:rgb(10.196078%,10.196078%,9.411765%);fill-opacity:1;" d="M 106.144531 182.089844 C 107.734375 181.890625 109.128906 182.289062 110.332031 183.285156 C 108.878906 183.238281 107.382812 183.441406 105.847656 183.886719 C 104.777344 187.703125 106.074219 188.898438 109.734375 187.472656 C 110.394531 188.148438 110.195312 188.648438 109.136719 188.96875 C 105.351562 189.367188 103.855469 187.671875 104.648438 183.886719 C 105.273438 183.363281 105.773438 182.765625 106.144531 182.089844 Z M 106.144531 182.089844 "/>
<path style=" stroke:none;fill-rule:evenodd;fill:rgb(7.058824%,6.666667%,6.27451%);fill-opacity:1;" d="M 66.675781 182.089844 C 68.710938 181.898438 70.703125 182.097656 72.65625 182.6875 C 71.945312 183.246094 71.148438 183.445312 70.265625 183.285156 C 69.867188 191.261719 69.46875 191.261719 69.070312 183.285156 C 67.882812 183.492188 67.085938 183.09375 66.675781 182.089844 Z M 66.675781 182.089844 "/>
<path style=" stroke:none;fill-rule:evenodd;fill:rgb(10.196078%,9.803922%,9.411765%);fill-opacity:1;" d="M 131.261719 182.089844 C 132.902344 181.902344 134.5 182.101562 136.046875 182.6875 C 134.910156 183.265625 133.714844 183.464844 132.457031 183.285156 C 132.457031 183.886719 132.457031 184.484375 132.457031 185.082031 C 137.242188 185.480469 137.242188 185.878906 132.457031 186.277344 C 132.457031 186.875 132.457031 187.472656 132.457031 188.070312 C 133.90625 187.886719 135.300781 188.085938 136.644531 188.667969 C 134.890625 189.257812 133.097656 189.457031 131.261719 189.265625 C 131.261719 186.875 131.261719 184.484375 131.261719 182.089844 Z M 131.261719 182.089844 "/>
</g>
</svg>
