<?xml version="1.0" encoding="UTF-8"?>
<!DOCTYPE svg PUBLIC "-//W3C//DTD SVG 1.1//EN" "http://www.w3.org/Graphics/SVG/1.1/DTD/svg11.dtd">
<svg xmlns="http://www.w3.org/2000/svg" version="1.1" width="227px" height="100px" style="shape-rendering:geometricPrecision; text-rendering:geometricPrecision; image-rendering:optimizeQuality; fill-rule:evenodd; clip-rule:evenodd" xmlns:xlink="http://www.w3.org/1999/xlink">
<g><path style="opacity:1" fill="#f9f8f6" d="M -0.5,-0.5 C 75.1667,-0.5 150.833,-0.5 226.5,-0.5C 226.5,32.8333 226.5,66.1667 226.5,99.5C 150.833,99.5 75.1667,99.5 -0.5,99.5C -0.5,66.1667 -0.5,32.8333 -0.5,-0.5 Z"/></g>
<g><path style="opacity:1" fill="#b4b3b1" d="M 224.5,85.5 C 223.833,85.5 223.5,85.1667 223.5,84.5C 223.5,61.5 223.5,38.5 223.5,15.5C 151.167,15.5 78.8333,15.5 6.5,15.5C 6.66663,38.8357 6.49997,62.169 6,85.5C 5.50003,61.5023 5.33337,37.5023 5.5,13.5C 78.5,13.5 151.5,13.5 224.5,13.5C 224.5,37.5 224.5,61.5 224.5,85.5 Z"/></g>
<g><path style="opacity:1" fill="#979694" d="M 57.5,40.5 C 56.5655,39.4324 56.2322,38.099 56.5,36.5C 53.9407,36.1984 51.6074,36.5318 49.5,37.5C 48.9569,37.44 48.6236,37.1067 48.5,36.5C 51.4281,35.5159 54.4281,35.1826 57.5,35.5C 57.5,37.1667 57.5,38.8333 57.5,40.5 Z"/></g>
<g><path style="opacity:1" fill="#92918f" d="M 92.5,37.5 C 90.1667,36.1667 87.8333,36.1667 85.5,37.5C 84.5,37.5 83.5,37.5 82.5,37.5C 81.1667,36.1667 79.8333,36.1667 78.5,37.5C 77.7109,37.2172 77.0442,36.7172 76.5,36C 82.8333,35.3333 89.1667,35.3333 95.5,36C 94.7562,37.0386 93.7562,37.5386 92.5,37.5 Z"/></g>
<g><path style="opacity:1" fill="#969593" d="M 102.5,36.5 C 100.901,36.2322 99.5676,36.5655 98.5,37.5C 97.6236,37.6309 96.9569,37.2975 96.5,36.5C 98.6365,35.2072 100.636,35.2072 102.5,36.5 Z"/></g>
<g><path style="opacity:1" fill="#979694" d="M 128.5,36.5 C 126.585,36.2155 124.919,36.5489 123.5,37.5C 122.711,37.2172 122.044,36.7172 121.5,36C 124.039,35.2042 126.372,35.3709 128.5,36.5 Z"/></g>
<g><path style="opacity:1" fill="#91908e" d="M 155.5,37.5 C 153.5,36.1667 151.5,36.1667 149.5,37.5C 148.244,37.5386 147.244,37.0386 146.5,36C 150.211,35.1747 153.878,35.3414 157.5,36.5C 157.043,37.2975 156.376,37.6309 155.5,37.5 Z"/></g>
<g><path style="opacity:1" fill="#a1a09e" d="M 177.5,43.5 C 178.468,41.3926 178.802,39.0593 178.5,36.5C 176.901,36.2322 175.568,36.5655 174.5,37.5C 172.5,37.5 170.5,37.5 168.5,37.5C 166.167,36.1667 163.833,36.1667 161.5,37.5C 160.711,37.2172 160.044,36.7172 159.5,36C 166.158,35.5004 172.825,35.3337 179.5,35.5C 179.817,38.5719 179.484,41.5719 178.5,44.5C 177.893,44.3764 177.56,44.0431 177.5,43.5 Z"/></g>
<g><path style="opacity:1" fill="#21211f" d="M 78.5,37.5 C 79.8333,36.1667 81.1667,36.1667 82.5,37.5C 81.2008,39.4123 80.2008,41.4123 79.5,43.5C 79.7947,41.2646 79.4614,39.2646 78.5,37.5 Z"/></g>
<g><path style="opacity:1" fill="#181716" d="M 174.5,37.5 C 175.568,36.5655 176.901,36.2322 178.5,36.5C 178.802,39.0593 178.468,41.3926 177.5,43.5C 177.975,40.6874 176.975,38.6874 174.5,37.5 Z"/></g>
<g><path style="opacity:1" fill="#161514" d="M 161.5,37.5 C 163.833,36.1667 166.167,36.1667 168.5,37.5C 167.518,40.9619 167.185,44.6286 167.5,48.5C 170.905,48.4881 173.072,46.8215 174,43.5C 174.667,46.8333 174.667,50.1667 174,53.5C 172.974,50.3072 170.808,48.9738 167.5,49.5C 167.5,53.1667 167.5,56.8333 167.5,60.5C 173.938,62.2438 177.772,59.9105 179,53.5C 179.497,56.146 179.664,58.8127 179.5,61.5C 171.766,61.875 166.099,61.5417 162.5,60.5C 162.825,52.6484 162.492,44.9818 161.5,37.5 Z"/></g>
<g><path style="opacity:1" fill="#100f0e" d="M 57.5,40.5 C 58.893,45.1797 60.393,49.8464 62,54.5C 65.5888,49.0082 66.0888,43.3416 63.5,37.5C 65.7427,36.5258 68.076,36.1924 70.5,36.5C 71.2163,41.9833 72.5497,47.3166 74.5,52.5C 74.5,53.8333 75.1667,54.5 76.5,54.5C 75.4336,56.7014 74.767,59.0347 74.5,61.5C 73.325,61.719 72.325,61.3857 71.5,60.5C 70.4156,55.909 68.7489,51.5757 66.5,47.5C 64.2609,51.9749 62.5943,56.6416 61.5,61.5C 60.325,61.719 59.325,61.3857 58.5,60.5C 55.688,52.7257 52.688,45.059 49.5,37.5C 51.6074,36.5318 53.9407,36.1984 56.5,36.5C 56.2322,38.099 56.5655,39.4324 57.5,40.5 Z"/></g>
<g><path style="opacity:1" fill="#848382" d="M 142.5,61.5 C 142.966,57.838 142.299,54.5046 140.5,51.5C 141.486,47.03 141.819,42.3633 141.5,37.5C 137.556,36.7255 137.723,36.0589 142,35.5C 143.167,35.8333 144.333,36.1667 145.5,36.5C 143.892,44.8166 142.892,53.15 142.5,61.5 Z"/></g>
<g><path style="opacity:1" fill="#62615f" d="M 117.5,53.5 C 116.833,53.5 116.5,53.1667 116.5,52.5C 116.5,47.5 116.5,42.5 116.5,37.5C 115.325,37.719 114.325,37.3857 113.5,36.5C 115.765,35.3526 118.098,35.1859 120.5,36C 119.667,36.8333 118.833,37.6667 118,38.5C 117.501,43.4889 117.334,48.4889 117.5,53.5 Z"/></g>
<g><path style="opacity:1" fill="#0f0e0d" d="M 123.5,37.5 C 124.919,36.5489 126.585,36.2155 128.5,36.5C 132.5,41.5 136.5,46.5 140.5,51.5C 142.299,54.5046 142.966,57.838 142.5,61.5C 140.983,61.4894 139.816,60.8228 139,59.5C 134.97,53.9804 130.803,48.6471 126.5,43.5C 126.158,42.6618 125.492,42.3284 124.5,42.5C 124.784,40.5853 124.451,38.9187 123.5,37.5 Z"/></g>
<g><path style="opacity:1" fill="#131311" d="M 85.5,37.5 C 87.8333,36.1667 90.1667,36.1667 92.5,37.5C 92.185,45.4197 92.5183,53.253 93.5,61C 90.5,61.6667 87.5,61.6667 84.5,61C 85.7939,57.26 86.4605,53.26 86.5,49C 86.4988,44.9848 86.1655,41.1515 85.5,37.5 Z"/></g>
<g><path style="opacity:1" fill="#5f5e5c" d="M 99.5,42.5 C 100.492,42.3284 101.158,42.6618 101.5,43.5C 100.511,48.9753 100.178,54.642 100.5,60.5C 102.706,61.5841 101.373,61.7508 96.5,61C 97.4162,60.6258 98.2496,60.1258 99,59.5C 99.4994,53.8431 99.6661,48.1764 99.5,42.5 Z"/></g>
<g><path style="opacity:1" fill="#4b4a48" d="M 124.5,42.5 C 125.492,42.3284 126.158,42.6618 126.5,43.5C 125.836,46.1459 125.502,48.9792 125.5,52C 125.558,55.276 126.224,58.276 127.5,61C 125.833,61.6667 124.167,61.6667 122.5,61C 123,60.5 123.5,60 124,59.5C 124.499,53.8431 124.666,48.1764 124.5,42.5 Z"/></g>
<g><path style="opacity:1" fill="#0e0d0b" d="M 155.5,37.5 C 155.185,45.4197 155.518,53.253 156.5,61C 153.5,61.6667 150.5,61.6667 147.5,61C 149.447,53.4419 150.114,45.6085 149.5,37.5C 151.5,36.1667 153.5,36.1667 155.5,37.5 Z"/></g>
<g><path style="opacity:1" fill="#757472" d="M 79.5,43.5 C 79.3724,47.4168 78.3724,51.0834 76.5,54.5C 75.1667,54.5 74.5,53.8333 74.5,52.5C 75.4972,52.5299 76.1639,52.0299 76.5,51C 77.2333,48.2804 78.2333,45.7804 79.5,43.5 Z"/></g>
<g><path style="opacity:1" fill="#0d0c0b" d="M 98.5,37.5 C 99.5676,36.5655 100.901,36.2322 102.5,36.5C 107.539,41.5372 112.206,46.8705 116.5,52.5C 116.5,53.1667 116.833,53.5 117.5,53.5C 117.813,56.2469 117.48,58.9135 116.5,61.5C 116.167,61.3333 115.833,61.1667 115.5,61C 111,55.0034 106.333,49.1701 101.5,43.5C 101.158,42.6618 100.492,42.3284 99.5,42.5C 99.7845,40.5853 99.4511,38.9187 98.5,37.5 Z"/></g>
<g><path style="opacity:1" fill="#5d5c5a" d="M 39.5,81.5 C 41.288,81.2148 42.9547,81.5481 44.5,82.5C 43.0451,84.2199 42.2117,86.2199 42,88.5C 41.5522,85.9693 40.7189,83.6359 39.5,81.5 Z"/></g>
<g><path style="opacity:1" fill="#898886" d="M 98.5,82.5 C 100.035,81.2121 101.701,81.2121 103.5,82.5C 102.311,83.4287 100.978,83.762 99.5,83.5C 99.5,82.8333 99.1667,82.5 98.5,82.5 Z"/></g>
<g><path style="opacity:1" fill="#5a5957" d="M 50.5,81.5 C 52.288,81.2148 53.9547,81.5481 55.5,82.5C 51.6395,83.5976 51.6395,84.4309 55.5,85C 51.5,86 51.5,87 55.5,88C 53.8659,88.4935 52.1992,88.6602 50.5,88.5C 50.5,86.1667 50.5,83.8333 50.5,81.5 Z"/></g>
<g><path style="opacity:1" fill="#72716f" d="M 109.5,81.5 C 114.213,81.4676 115.713,83.8009 114,88.5C 112.488,86.0426 111.154,86.0426 110,88.5C 109.503,86.1902 109.337,83.8568 109.5,81.5 Z"/></g>
<g><path style="opacity:1" fill="#7e7d7b" d="M 143.5,81.5 C 144.725,82.1522 145.392,83.3189 145.5,85C 145.167,86.1667 144.833,87.3333 144.5,88.5C 143.526,86.2573 143.192,83.924 143.5,81.5 Z"/></g>
<g><path style="opacity:1" fill="#575654" d="M 75.5,81.5 C 80.658,82.4837 80.658,83.3171 75.5,84C 74.5494,84.7175 74.3828,85.5509 75,86.5C 76.6524,87.217 78.1524,87.5504 79.5,87.5C 73.3445,88.9463 72.0112,86.9463 75.5,81.5 Z"/></g>
<g><path style="opacity:1" fill="#292826" d="M 167.5,85.5 C 166.883,85.3893 166.383,85.056 166,84.5C 165.667,85.8333 165.333,87.1667 165,88.5C 164.333,86.1667 164.333,83.8333 165,81.5C 166.481,82.4709 167.315,83.8042 167.5,85.5 Z"/></g>
<g><path style="opacity:1" fill="#585755" d="M 185.5,81.5 C 189.971,81.6724 190.304,82.5057 186.5,84C 190.361,84.5691 190.361,85.4024 186.5,86.5C 187.376,87.2508 188.376,87.7508 189.5,88C 187.866,88.4935 186.199,88.6602 184.5,88.5C 184.298,86.0504 184.631,83.717 185.5,81.5 Z"/></g>
<g><path style="opacity:1" fill="#c9c8c6" d="M 223.5,84.5 C 223.5,85.1667 223.833,85.5 224.5,85.5C 219.652,86.8137 214.652,86.8137 209.5,85.5C 214.12,84.5067 218.786,84.1734 223.5,84.5 Z"/></g>
<g><path style="opacity:1" fill="#555452" d="M 63.5,82.5 C 66.4523,83.399 67.6189,85.399 67,88.5C 65.3333,87.1667 63.6667,87.1667 62,88.5C 62.1503,86.4944 62.6503,84.4944 63.5,82.5 Z"/></g>
<g><path style="opacity:1" fill="#605f5d" d="M 85.5,81.5 C 87.0481,81.8212 87.7148,82.8212 87.5,84.5C 89.1238,84.6399 90.2904,83.9733 91,82.5C 91.6218,87.2627 91.4551,88.2627 90.5,85.5C 89.5,85.5 88.5,85.5 87.5,85.5C 87.719,86.675 87.3857,87.675 86.5,88.5C 85.5258,86.2573 85.1924,83.924 85.5,81.5 Z"/></g>
<g><path style="opacity:1" fill="#222120" d="M 98.5,82.5 C 99.1667,82.5 99.5,82.8333 99.5,83.5C 100.263,84.2679 101.263,84.7679 102.5,85C 98.7351,86.3772 99.0684,87.3772 103.5,88C 101.866,88.4935 100.199,88.6602 98.5,88.5C 98.5,86.5 98.5,84.5 98.5,82.5 Z"/></g>
<g><path style="opacity:1" fill="#51504e" d="M 151.5,81.5 C 153.193,82.4749 154.693,83.8082 156,85.5C 156.333,84.5 156.667,83.5 157,82.5C 158.363,88.1671 157.363,89.1671 154,85.5C 153.751,86.624 153.251,87.624 152.5,88.5C 151.526,86.2573 151.192,83.924 151.5,81.5 Z"/></g>
<g><path style="opacity:1" fill="#706f6d" d="M 176.5,82.5 C 177.693,82.9704 178.36,83.9704 178.5,85.5C 178.167,86.5 177.833,87.5 177.5,88.5C 176.534,86.604 176.201,84.604 176.5,82.5 Z"/></g>
<g><path style="opacity:1" fill="#4f4e4c" d="M 128.5,81.5 C 129.793,82.842 130.626,84.5087 131,86.5C 131.935,81.9982 133.269,81.6649 135,85.5C 135.915,84.6721 136.581,83.6721 137,82.5C 137.507,84.8346 136.84,86.8346 135,88.5C 133.956,87.3774 133.29,86.0441 133,84.5C 132.71,86.0441 132.044,87.3774 131,88.5C 129.477,86.4308 128.643,84.0974 128.5,81.5 Z"/></g>
<g><path style="opacity:1" fill="#4b4a48" d="M 167.5,85.5 C 169.045,84.7703 169.878,83.437 170,81.5C 170.814,83.9018 170.647,86.2351 169.5,88.5C 168.081,87.9953 167.415,86.9953 167.5,85.5 Z"/></g>
</svg>
