<?xml version="1.0" encoding="UTF-8"?>
<!DOCTYPE svg PUBLIC "-//W3C//DTD SVG 1.1//EN" "http://www.w3.org/Graphics/SVG/1.1/DTD/svg11.dtd">
<svg xmlns="http://www.w3.org/2000/svg" version="1.1" width="308px" height="88px" style="shape-rendering:geometricPrecision; text-rendering:geometricPrecision; image-rendering:optimizeQuality; fill-rule:evenodd; clip-rule:evenodd" xmlns:xlink="http://www.w3.org/1999/xlink">
<g><path style="opacity:1" fill="#f8f7f6" d="M -0.5,-0.5 C 102.167,-0.5 204.833,-0.5 307.5,-0.5C 307.5,28.8333 307.5,58.1667 307.5,87.5C 204.833,87.5 102.167,87.5 -0.5,87.5C -0.5,58.1667 -0.5,28.8333 -0.5,-0.5 Z"/></g>
<g><path style="opacity:1" fill="#666665" d="M 286.5,74.5 C 285.833,74.5 285.5,74.1667 285.5,73.5C 285.5,53.5 285.5,33.5 285.5,13.5C 195.5,13.5 105.5,13.5 15.5,13.5C 15.5,33.5 15.5,53.5 15.5,73.5C 15.5,74.1667 15.1667,74.5 14.5,74.5C 14.5,53.8333 14.5,33.1667 14.5,12.5C 105.167,12.5 195.833,12.5 286.5,12.5C 286.5,33.1667 286.5,53.8333 286.5,74.5 Z"/></g>
<g><path style="opacity:1" fill="#171717" d="M 84.5,36.5 C 84.1568,38.4832 84.8235,39.8166 86.5,40.5C 86.2437,42.9372 85.5771,45.2706 84.5,47.5C 83.3112,48.4287 81.9778,48.762 80.5,48.5C 78.3605,39.2498 75.5272,30.2498 72,21.5C 71.2155,19.714 70.0488,18.214 68.5,17C 72.5,16.3333 76.5,16.3333 80.5,17C 79.4238,18.7261 79.2571,20.5594 80,22.5C 81.607,27.1536 83.107,31.8203 84.5,36.5 Z"/></g>
<g><path style="opacity:1" fill="#141414" d="M 101.5,38.5 C 101.328,39.4916 101.662,40.1583 102.5,40.5C 101.629,43.1123 100.963,45.779 100.5,48.5C 99.5,48.5 98.5,48.5 97.5,48.5C 95.9001,42.034 93.9001,35.7007 91.5,29.5C 91.5,28.8333 91.1667,28.5 90.5,28.5C 89.7761,25.1574 88.9428,21.824 88,18.5C 87.2496,17.8742 86.4162,17.3742 85.5,17C 90.9775,16.1114 94.3108,16.278 95.5,17.5C 97.4933,24.4824 99.4933,31.4824 101.5,38.5 Z"/></g>
<g><path style="opacity:1" fill="#131313" d="M 108.5,23.5 C 108.167,23.5 107.833,23.5 107.5,23.5C 108.363,19.8384 107.03,17.6718 103.5,17C 111.167,16.3333 118.833,16.3333 126.5,17C 125.234,17.3095 124.067,17.8095 123,18.5C 122.333,27.8333 122.333,37.1667 123,46.5C 124.067,47.1905 125.234,47.6905 126.5,48C 120.717,48.8682 117.05,48.7015 115.5,47.5C 115.5,37.5 115.5,27.5 115.5,17.5C 111.307,17.3617 108.973,19.3617 108.5,23.5 Z"/></g>
<g><path style="opacity:1" fill="#131313" d="M 151.5,36.5 C 153.318,40.1726 153.984,44.1726 153.5,48.5C 151.983,48.4894 150.816,47.8228 150,46.5C 144.963,39.0677 139.463,32.0677 133.5,25.5C 133.158,24.6618 132.492,24.3284 131.5,24.5C 131.5,22.1667 131.5,19.8333 131.5,17.5C 128.387,16.43 130.054,16.2634 136.5,17C 141.63,23.4398 146.63,29.9398 151.5,36.5 Z"/></g>
<g><path style="opacity:1" fill="#202020" d="M 154.5,19.5 C 153.833,19.5 153.167,19.5 152.5,19.5C 151.653,18.0337 150.32,17.2004 148.5,17C 151.5,16.3333 154.5,16.3333 157.5,17C 156.058,17.3768 155.058,18.2101 154.5,19.5 Z"/></g>
<g><path style="opacity:1" fill="#131313" d="M 182.5,36.5 C 184.318,40.1726 184.984,44.1726 184.5,48.5C 182.983,48.4894 181.816,47.8228 181,46.5C 175.963,39.0677 170.463,32.0677 164.5,25.5C 164.158,24.6618 163.492,24.3284 162.5,24.5C 162.5,22.1667 162.5,19.8333 162.5,17.5C 159.387,16.43 161.054,16.2634 167.5,17C 172.63,23.4398 177.63,29.9398 182.5,36.5 Z"/></g>
<g><path style="opacity:1" fill="#202020" d="M 185.5,19.5 C 184.833,19.5 184.167,19.5 183.5,19.5C 182.653,18.0337 181.32,17.2004 179.5,17C 182.5,16.3333 185.5,16.3333 188.5,17C 187.058,17.3768 186.058,18.2101 185.5,19.5 Z"/></g>
<g><path style="opacity:1" fill="#121212" d="M 189.5,17.5 C 195.099,16.2006 198.766,16.2006 200.5,17.5C 200.5,27.5 200.5,37.5 200.5,47.5C 198.95,48.7015 195.283,48.8682 189.5,48C 190.766,47.6905 191.933,47.1905 193,46.5C 193.667,37.1667 193.667,27.8333 193,18.5C 191.989,17.6634 190.822,17.33 189.5,17.5 Z"/></g>
<g><path style="opacity:1" fill="#131313" d="M 228.5,16.5 C 228.795,18.7354 228.461,20.7354 227.5,22.5C 227.084,20.2475 225.751,18.7475 223.5,18C 220.854,17.5026 218.187,17.3359 215.5,17.5C 215.5,22.1667 215.5,26.8333 215.5,31.5C 217.858,31.7475 219.858,31.0808 221.5,29.5C 222.833,31.1667 222.833,32.8333 221.5,34.5C 219.898,32.9261 217.898,32.2594 215.5,32.5C 215.197,37.43 215.531,42.2633 216.5,47C 222.994,49.2128 226.994,47.0462 228.5,40.5C 229.473,42.9479 229.806,45.6146 229.5,48.5C 220.444,48.8599 213.444,48.5265 208.5,47.5C 208.5,37.5 208.5,27.5 208.5,17.5C 213.109,16.4706 219.775,16.1372 228.5,16.5 Z"/></g>
<g><path style="opacity:1" fill="#888787" d="M 152.5,19.5 C 153.167,19.5 153.833,19.5 154.5,19.5C 154.827,29.3478 154.494,39.0144 153.5,48.5C 153.984,44.1726 153.318,40.1726 151.5,36.5C 152.489,31.0247 152.822,25.358 152.5,19.5 Z"/></g>
<g><path style="opacity:1" fill="#888787" d="M 183.5,19.5 C 184.167,19.5 184.833,19.5 185.5,19.5C 185.827,29.3478 185.494,39.0144 184.5,48.5C 184.984,44.1726 184.318,40.1726 182.5,36.5C 183.489,31.0247 183.822,25.358 183.5,19.5 Z"/></g>
<g><path style="opacity:1" fill="#797979" d="M 228.5,16.5 C 229.803,19.3553 229.803,22.3553 228.5,25.5C 227.614,24.675 227.281,23.675 227.5,22.5C 228.461,20.7354 228.795,18.7354 228.5,16.5 Z"/></g>
<g><path style="opacity:1" fill="#494949" d="M 131.5,24.5 C 132.492,24.3284 133.158,24.6618 133.5,25.5C 132.345,32.3209 132.179,39.3209 133,46.5C 134.067,47.1905 135.234,47.6905 136.5,48C 133.5,48.6667 130.5,48.6667 127.5,48C 128.766,47.6905 129.933,47.1905 131,46.5C 131.5,39.1742 131.666,31.8409 131.5,24.5 Z"/></g>
<g><path style="opacity:1" fill="#494949" d="M 162.5,24.5 C 163.492,24.3284 164.158,24.6618 164.5,25.5C 163.345,32.3209 163.179,39.3209 164,46.5C 165.067,47.1905 166.234,47.6905 167.5,48C 164.5,48.6667 161.5,48.6667 158.5,48C 159.766,47.6905 160.933,47.1905 162,46.5C 162.5,39.1742 162.666,31.8409 162.5,24.5 Z"/></g>
<g><path style="opacity:1" fill="#676767" d="M 107.5,23.5 C 107.833,23.5 108.167,23.5 108.5,23.5C 106.871,29.3925 104.871,35.0591 102.5,40.5C 101.662,40.1583 101.328,39.4916 101.5,38.5C 103.651,33.5643 105.651,28.5643 107.5,23.5 Z"/></g>
<g><path style="opacity:1" fill="#3f3f3f" d="M 221.5,34.5 C 222.833,32.8333 222.833,31.1667 221.5,29.5C 221.709,28.0783 222.209,26.745 223,25.5C 223.667,29.8333 223.667,34.1667 223,38.5C 222.59,37.0993 222.09,35.766 221.5,34.5 Z"/></g>
<g><path style="opacity:1" fill="#7f7e7e" d="M 229.5,48.5 C 229.806,45.6146 229.473,42.9479 228.5,40.5C 228.281,39.325 228.614,38.325 229.5,37.5C 230.808,41.3147 230.808,44.9813 229.5,48.5 Z"/></g>
<g><path style="opacity:1" fill="#575757" d="M 90.5,28.5 C 91.1667,28.5 91.5,28.8333 91.5,29.5C 89.6396,33.0825 87.9729,36.7492 86.5,40.5C 84.8235,39.8166 84.1568,38.4832 84.5,36.5C 85.2679,37.2625 85.7679,38.2625 86,39.5C 87.0377,35.5317 88.5377,31.865 90.5,28.5 Z"/></g>
<g><path style="opacity:1" fill="#969595" d="M 76.5,65.5 C 75.0813,64.5489 73.4147,64.2155 71.5,64.5C 71.5,67.1667 71.5,69.8333 71.5,72.5C 70.5233,69.7131 70.19,66.7131 70.5,63.5C 72.924,63.1924 75.2573,63.5258 77.5,64.5C 77.3764,65.1067 77.0431,65.44 76.5,65.5 Z"/></g>
<g><path style="opacity:1" fill="#2b2b2b" d="M 130.5,64.5 C 136.324,64.3466 136.657,65.0133 131.5,66.5C 136.682,67.776 136.682,68.4427 131.5,68.5C 131.5,69.5 131.5,70.5 131.5,71.5C 133.199,71.3398 134.866,71.5065 136.5,72C 134.527,72.4955 132.527,72.6621 130.5,72.5C 130.5,69.8333 130.5,67.1667 130.5,64.5 Z"/></g>
<g><path style="opacity:1" fill="#777776" d="M 186.5,64.5 C 187.748,65.3339 188.415,66.6672 188.5,68.5C 188.167,69.8333 187.833,71.1667 187.5,72.5C 186.52,69.9135 186.187,67.2469 186.5,64.5 Z"/></g>
<g><path style="opacity:1" fill="#393939" d="M 212.5,64.5 C 215.091,65.2543 216.924,66.921 218,69.5C 218.333,67.8333 218.667,66.1667 219,64.5C 220.698,74.3813 219.031,75.0479 214,66.5C 213.667,68.5 213.333,70.5 213,72.5C 212.503,69.854 212.336,67.1873 212.5,64.5 Z"/></g>
<g><path style="opacity:1" fill="#696868" d="M 227.5,63.5 C 228.765,64.5145 229.431,66.0145 229.5,68C 229.167,69.5 228.833,71 228.5,72.5C 227.516,69.5719 227.183,66.5719 227.5,63.5 Z"/></g>
<g><path style="opacity:1" fill="#969595" d="M 243.5,65.5 C 242.081,64.5489 240.415,64.2155 238.5,64.5C 238.5,67.1667 238.5,69.8333 238.5,72.5C 237.523,69.7131 237.19,66.7131 237.5,63.5C 239.924,63.1924 242.257,63.5258 244.5,64.5C 244.376,65.1067 244.043,65.44 243.5,65.5 Z"/></g>
<g><path style="opacity:1" fill="#585857" d="M 57.5,65.5 C 59.2884,64.3775 61.2884,64.2109 63.5,65C 62.0041,67.2012 61.0041,69.7012 60.5,72.5C 60.0615,69.7051 59.0615,67.3717 57.5,65.5 Z"/></g>
<g><path style="opacity:1" fill="#636262" d="M 86.5,64.5 C 87.8221,64.33 88.9887,64.6634 90,65.5C 90.5573,67.6147 91.3906,69.6147 92.5,71.5C 92.1667,71.8333 91.8333,72.1667 91.5,72.5C 89.3263,69.9194 87.1596,69.9194 85,72.5C 85.1529,69.8262 85.6529,67.1595 86.5,64.5 Z"/></g>
<g><path style="opacity:1" fill="#444343" d="M 196.5,64.5 C 199.091,65.2543 200.924,66.921 202,69.5C 202.333,67.8333 202.667,66.1667 203,64.5C 204.754,72.0745 203.421,73.4079 199,68.5C 198.781,69.938 198.281,71.2713 197.5,72.5C 196.52,69.9135 196.187,67.2469 196.5,64.5 Z"/></g>
<g><path style="opacity:1" fill="#343433" d="M 76.5,65.5 C 71.203,66.0325 71.203,66.8658 76.5,68C 75.2068,68.49 73.8734,68.6567 72.5,68.5C 72.5,69.5 72.5,70.5 72.5,71.5C 74.1992,71.3398 75.8659,71.5065 77.5,72C 75.5273,72.4955 73.5273,72.6621 71.5,72.5C 71.5,69.8333 71.5,67.1667 71.5,64.5C 73.4147,64.2155 75.0813,64.5489 76.5,65.5 Z"/></g>
<g><path style="opacity:1" fill="#393838" d="M 100.5,64.5 C 102.604,64.2011 104.604,64.5344 106.5,65.5C 105.091,65.6541 103.424,65.8208 101.5,66C 100.14,67.9376 100.473,69.6043 102.5,71C 103.833,71 105.167,71 106.5,71C 100.397,73.0599 98.3965,70.8932 100.5,64.5 Z"/></g>
<g><path style="opacity:1" fill="#343433" d="M 243.5,65.5 C 238.203,66.0325 238.203,66.8658 243.5,68C 242.207,68.49 240.873,68.6567 239.5,68.5C 239.5,69.5 239.5,70.5 239.5,71.5C 241.199,71.3398 242.866,71.5065 244.5,72C 242.527,72.4955 240.527,72.6621 238.5,72.5C 238.5,69.8333 238.5,67.1667 238.5,64.5C 240.415,64.2155 242.081,64.5489 243.5,65.5 Z"/></g>
<g><path style="opacity:1" fill="#434343" d="M 114.5,64.5 C 115.404,65.209 115.737,66.209 115.5,67.5C 117.167,67.5 118.833,67.5 120.5,67.5C 121.833,68.1667 121.833,68.8333 120.5,69.5C 119.167,69.5 117.833,69.5 116.5,69.5C 116.719,70.675 116.386,71.675 115.5,72.5C 114.52,69.9135 114.187,67.2469 114.5,64.5 Z"/></g>
<g><path style="opacity:1" fill="#3b3a3a" d="M 144.5,64.5 C 146.5,64.5 148.5,64.5 150.5,64.5C 150.348,67.487 150.015,70.1536 149.5,72.5C 147.663,68.7874 146.163,68.7874 145,72.5C 144.503,69.854 144.336,67.1873 144.5,64.5 Z"/></g>
<g><path style="opacity:1" fill="#eae9e8" d="M 145.5,65.5 C 146.833,65.5 148.167,65.5 149.5,65.5C 149.5,66.5 149.5,67.5 149.5,68.5C 148.167,68.5 146.833,68.5 145.5,68.5C 145.5,67.5 145.5,66.5 145.5,65.5 Z"/></g>
<g><path style="opacity:1" fill="#575756" d="M 167.5,64.5 C 169.614,65.3602 170.78,67.0268 171,69.5C 172.231,63.5151 173.898,63.1818 176,68.5C 176.923,67.2412 177.757,65.9079 178.5,64.5C 178.941,67.2275 178.275,69.8942 176.5,72.5C 175.194,71.0878 174.36,69.4211 174,67.5C 173.1,69.3975 171.934,71.0642 170.5,72.5C 169.49,69.8172 168.49,67.1505 167.5,64.5 Z"/></g>
<g><path style="opacity:1" fill="#acacab" d="M 15.5,73.5 C 21.2055,73.1712 26.8722,73.5046 32.5,74.5C 26.3456,75.8166 20.3456,75.8166 14.5,74.5C 15.1667,74.5 15.5,74.1667 15.5,73.5 Z"/></g>
<g><path style="opacity:1" fill="#acacab" d="M 285.5,73.5 C 285.5,74.1667 285.833,74.5 286.5,74.5C 280.654,75.8166 274.654,75.8166 268.5,74.5C 274.128,73.5046 279.794,73.1712 285.5,73.5 Z"/></g>
</svg>
